<svg width="18" height="20" viewBox="0 0 18 20" fill="none" xmlns="http://www.w3.org/2000/svg">
<path fill-rule="evenodd" clip-rule="evenodd" d="M6.12303 0.0375673C5.62058 0.13455 5.11238 0.522093 4.89851 0.971392C4.75375 1.27549 4.70265 1.53647 4.70265 1.97173V2.3131L2.78497 2.32416C0.918115 2.33491 0.862454 2.33742 0.684414 2.41832C0.450084 2.52481 0.194 2.77686 0.0872396 3.00617C-0.0290799 3.25589 -0.0290799 3.69603 0.0872396 3.94575C0.194 4.17506 0.450084 4.42711 0.684414 4.5336L0.867292 4.6167H8.83303H16.7988L16.9816 4.5336C17.216 4.42711 17.4721 4.17506 17.5788 3.94575C17.6951 3.69603 17.6951 3.25589 17.5788 3.00617C17.4721 2.77686 17.216 2.52481 16.9816 2.41832C16.8036 2.33742 16.7479 2.33491 14.8811 2.32416L12.9634 2.3131V1.97173C12.9634 1.78399 12.9454 1.53674 12.9233 1.42228C12.7893 0.727775 12.2187 0.166916 11.5122 0.0352085C11.2527 -0.0131668 6.37482 -0.01104 6.12303 0.0375673ZM11.4696 1.23365C11.7045 1.35143 11.7833 1.53558 11.7833 1.96631V2.31588H8.83303H5.88276V1.96631C5.88276 1.54246 5.96194 1.3529 6.18805 1.23554C6.3299 1.16195 6.42376 1.15917 8.82477 1.15751C11.2441 1.15584 11.3188 1.15801 11.4696 1.23365ZM1.22313 5.96046C1.23411 6.05087 1.46384 8.76978 1.73369 12.0025C2.0035 15.2353 2.24322 18.0282 2.26639 18.209C2.36402 18.9701 2.89358 19.5699 3.61585 19.7374C3.97609 19.8209 13.69 19.8209 14.0502 19.7374C14.7725 19.5699 15.302 18.9701 15.3997 18.209C15.4228 18.0282 15.6626 15.2353 15.9324 12.0025C16.2022 8.76978 16.432 6.05087 16.4429 5.96046L16.4629 5.79612H8.83303H1.20315L1.22313 5.96046ZM5.63686 7.06528C5.70185 7.1108 5.78217 7.20492 5.81533 7.27444C5.86246 7.37328 5.94172 8.4479 6.17818 12.1941L6.48076 16.9872L6.39929 17.152C6.25193 17.4501 5.89106 17.5549 5.59119 17.3866C5.29353 17.2195 5.33027 17.5378 4.99677 12.2358L4.69525 7.44215L4.77633 7.27808C4.92828 6.97058 5.35194 6.86583 5.63686 7.06528ZM9.10941 7.03404C9.20937 7.08415 9.29292 7.16629 9.3439 7.26454C9.42198 7.41504 9.42308 7.48275 9.42308 12.2152C9.42308 16.9477 9.42198 17.0154 9.3439 17.1659C9.25484 17.3375 9.02822 17.4742 8.83303 17.4742C8.63784 17.4742 8.41122 17.3375 8.32216 17.1659C8.24408 17.0154 8.24298 16.9477 8.24298 12.2152C8.24298 7.48469 8.24408 7.41501 8.32208 7.2647C8.46747 6.98458 8.81045 6.88412 9.10941 7.03404ZM12.6515 7.03493C12.7595 7.0891 12.8338 7.16486 12.8896 7.27788L12.9708 7.44215L12.6693 12.2358C12.3358 17.5378 12.3725 17.2195 12.0749 17.3866C11.775 17.5549 11.4141 17.4501 11.2667 17.152L11.1853 16.9871L11.484 12.2133C11.7633 7.74915 11.7881 7.42904 11.8661 7.27707C11.924 7.16439 11.9994 7.09038 12.1123 7.03543C12.3176 6.93555 12.4531 6.93539 12.6515 7.03493Z" fill="#241663"/>
</svg>
