<svg width="325" height="354" viewBox="0 0 325 354" fill="none" xmlns="http://www.w3.org/2000/svg">
<path d="M324.456 4.80273V4.89172V5.13644V5.38691V5.64311V5.90501V6.17259V6.44583V6.7247V7.00919V7.29925V7.59488V7.89604V8.20272V8.51489V8.83252V9.1556V9.48409V9.81798V10.1572V10.5019V10.8518V11.207V11.5675V11.9333V12.3043V12.6805V13.0618V13.4483V13.84V14.2368V14.6386V15.0456V15.4575V15.8745V16.2964V16.7234V17.1552V17.592V18.0337V18.4802V18.9316V19.3879V19.8489V20.3147V20.7852V21.2605V21.7405V22.2252V22.7145V23.2085V23.707V24.2102V24.7179V25.2301V25.7469V26.2682V26.7939V27.3241V27.8587V28.3976V28.941V29.4887V30.0407V30.597V31.1576V31.7225V32.2916V32.8649V33.4423V34.024V34.6097V35.1996V35.7936V36.3916V36.9936V37.5997V38.2098V38.8238V39.4418V40.0637V40.6895V41.3191V41.9526V42.59V43.2311V43.876V44.5247V45.1771V45.8332V46.493V47.1564V47.8235V48.4942V49.1684V49.8463V50.5277V51.2125V51.9009V52.5928V53.2881V53.9868V54.6889V55.3944V56.1032V56.8153V57.5308V58.2495V58.9715V59.6967V60.4252V61.1568V61.8915V62.6294V63.3704V64.1145V64.8617V65.6119V66.3651V67.1213V67.8805V68.6426V69.4076V70.1755V70.9464V71.72V72.4965V73.2758V74.0578V74.8426V75.6302V76.4204V77.2134V78.009V78.8072V79.608V80.4114V81.2174V82.026V82.837V83.6505V84.4665V85.285V86.1059V86.9291V87.7548V88.5828V89.4131V90.2457V91.0806V91.9177V92.7571V93.5987V94.4425V95.2884V96.1365V96.9866V97.8389V98.6932V99.5496V100.408V101.268V102.131V102.995V103.861V104.729V105.599V106.471V107.345V108.22V109.097V109.976V110.857V111.74V112.624V113.51V114.397V115.286V116.177V117.069V117.962V118.858V119.754V120.653V121.552V122.453V123.356V124.26V125.165V126.071V126.979V127.888V128.799V129.71V130.623V131.537V132.452V133.368V134.286V135.204V136.124V137.044V137.966V138.888V139.812V140.736V141.662V142.588V143.515V144.443V145.372V146.302V147.232V148.164V149.095V150.028V150.961V151.895V152.83V153.765V154.701V155.638V156.574V157.512V158.45V159.388V160.327V161.266V162.206V163.146V164.087V165.027V165.968V166.91V167.851V168.793V169.735V170.677V171.62V172.562V173.505V174.447V175.39V176.333V177.276V178.219V179.161V180.104V181.047V181.989V182.932V183.874V184.816V185.758V186.7V187.641V188.582V189.523V190.464V191.404V192.344V193.284V194.223V195.161V196.099V197.037V197.974V198.911V199.847V200.783V201.718V202.652V203.586V204.519V205.451V206.382V207.313V208.243V209.173V210.101V211.029V211.956V212.881V213.806V214.73V215.653V216.576V217.497V218.417V219.336V220.254V221.17V222.086V223.001V223.914V224.826V225.737V226.647V227.555V228.463V229.369V230.273V231.176V232.078V232.978V233.877V234.775V235.671V236.565V237.458V238.35V239.239V240.128V241.014V241.899V242.782V243.664V244.544V245.422V246.298V247.173V248.046V248.917V249.786V250.653V251.518V252.382V253.243V254.102V254.96V255.815V256.668V257.52V258.369V259.216V260.061V260.903V261.744V262.582V263.418V264.252V265.083V265.913V266.739V267.564V268.386V269.206V270.023V270.838V271.65V272.46V273.267V274.072V274.874V275.674V276.47V277.265V278.056V278.845V279.632V280.415V281.196V281.974V282.749V283.521V284.29V285.057V285.82V286.581V287.339V288.094V288.845V289.594V290.34V291.082V291.822V292.558V293.291V294.021V294.748V295.472V296.192V296.909V297.623V298.334V299.041V299.745V300.445V301.142V301.836V302.526V303.212V303.896V304.575V305.251V305.924V306.593V307.258V307.92V308.578V309.232V309.883V310.529V311.172V311.812V312.447V313.079V313.706V314.33V314.95V315.566V316.178V316.787V317.391V317.991V318.587V319.179V319.767V320.35V320.93V321.505V322.076V322.643V323.206V323.765V324.319V324.869V325.414V325.956V326.492V327.025V327.553V328.076V328.595V329.11V329.62V330.125V330.626V331.123V331.614V332.101V332.584V333.061V333.534V334.003V334.466V334.925V335.379V335.828V336.272V336.711V337.145V337.575V337.999V338.419V338.833V339.243V339.647V340.047V340.441V340.83V341.214V341.593V341.966V342.335V342.698V343.056V343.408V343.756V344.098V344.434C324.456 349.483 320.365 353.5 315.304 353.5H9.65216C4.59166 353.5 0.5 349.483 0.5 344.434L0.500007 149.096L0.500007 43.8763L0.500004 11.2072L0.500003 4.8028C0.918875 5.63523 1.47421 6.38212 2.17512 7.02662C4.00708 8.71114 6.76018 9.62834 10.4565 9.62835L165.193 9.62835L268.011 9.62835L301.732 9.62835L311.165 9.62835H313.648H314.285H314.446H314.486H314.496C314.499 9.62835 314.5 9.62835 314.5 9.12835V9.62835C318.196 9.62833 320.949 8.71115 322.781 7.02662C323.482 6.38211 324.037 5.63519 324.456 4.80273Z" fill="#EDEEFF" stroke="black"/>
</svg>
